# xmcd CD database file
#
# Track frame offsets:
#	150
#	12417
#	25157
#	39232
#	52225
#	65197
#	78430
#	91235
#	103285
#	115012
#	128440
#	139980
#	153320
#	166487
#	179077
#	192225
#
# Disc length: 2721 seconds
#
# Revision: 2
# Processed by: cddbd v1.5.2PL0 Copyright (c) Steve Scherf et al.
# Submitted via: CDex 1.51
#
DISCID=dd0a9f10
DTITLE=Roy Acuff - Columbia Historic Edition
DYEAR=1985
DGENRE=Country
TTITLE0=The Streamlined Connon Ball
TTITLE1=Lonesome Old River Blues
TTITLE2=You're The Only Star (In My Blue Heaven)
TTITLE3=Wabash Cannon Ball
TTITLE4=Drifting Too Far From Shore
TTITLE5=Steel Guitar Blues
TTITLE6=Ida Red
TTITLE7=I'll Be Alone
TTITLE8=Low And Lonely
TTITLE9=When I Lay My Burden Down
TTITLE10=Wonder Is All I Do
TTITLE11=Weary Lonesome Blues
TTITLE12=New Greenback Dollar
TTITLE13=Freight Train Blues
TTITLE14=The Heart That Was Broken For Me
TTITLE15=The Southbound Train
EXTD=YEAR: 1985
EXTT0=
EXTT1=
EXTT2=
EXTT3=
EXTT4=
EXTT5=
EXTT6=
EXTT7=
EXTT8=
EXTT9=
EXTT10=
EXTT11=
EXTT12=
EXTT13=
EXTT14=
EXTT15=
PLAYORDER=
